<mxfile host="app.diagrams.net" modified="2023-07-31T08:49:02.597Z" agent="Mozilla/5.0 (Windows NT 10.0; Win64; x64) AppleWebKit/537.36 (KHTML, like Gecko) Chrome/115.0.0.0 Safari/537.36" etag="oks74QShzv4E16AnI8le" version="21.6.5" type="device">
  <diagram name="페이지-1" id="7Ij8uKjP76WhhLE6ZRci">
    <mxGraphModel dx="2514" dy="2098" grid="1" gridSize="10" guides="1" tooltips="1" connect="1" arrows="1" fold="1" page="1" pageScale="1" pageWidth="827" pageHeight="1169" background="#FFFFFF" math="0" shadow="0">
      <root>
        <mxCell id="0" />
        <mxCell id="1" parent="0" />
        <mxCell id="FlCNs_IBPol1UIJCw7tp-71" value="" style="rounded=0;whiteSpace=wrap;html=1;strokeColor=#ffffff;" parent="1" vertex="1">
          <mxGeometry x="-480" y="-1169" width="1580" height="1549" as="geometry" />
        </mxCell>
        <mxCell id="FlCNs_IBPol1UIJCw7tp-15" style="edgeStyle=orthogonalEdgeStyle;rounded=0;orthogonalLoop=1;jettySize=auto;html=1;entryX=0.5;entryY=0;entryDx=0;entryDy=0;strokeWidth=3;" parent="1" source="FlCNs_IBPol1UIJCw7tp-10" target="FlCNs_IBPol1UIJCw7tp-13" edge="1">
          <mxGeometry relative="1" as="geometry" />
        </mxCell>
        <mxCell id="FlCNs_IBPol1UIJCw7tp-10" value="Recv Packet" style="shape=parallelogram;perimeter=parallelogramPerimeter;whiteSpace=wrap;html=1;fixedSize=1;aspect=fixed;strokeWidth=2;fontStyle=1" parent="1" vertex="1">
          <mxGeometry x="610" y="-1120" width="124" height="91" as="geometry" />
        </mxCell>
        <mxCell id="FlCNs_IBPol1UIJCw7tp-58" value="CmdType_TIFD" style="edgeStyle=orthogonalEdgeStyle;rounded=0;orthogonalLoop=1;jettySize=auto;html=1;entryX=0.5;entryY=0;entryDx=0;entryDy=0;fontStyle=1;fontSize=12;strokeWidth=3;exitX=0.5;exitY=1;exitDx=0;exitDy=0;" parent="1" source="FlCNs_IBPol1UIJCw7tp-13" target="FlCNs_IBPol1UIJCw7tp-23" edge="1">
          <mxGeometry x="0.4954" relative="1" as="geometry">
            <Array as="points">
              <mxPoint x="672" y="-930" />
              <mxPoint x="670" y="-930" />
              <mxPoint x="670" y="-860" />
            </Array>
            <mxPoint as="offset" />
          </mxGeometry>
        </mxCell>
        <mxCell id="FlCNs_IBPol1UIJCw7tp-13" value="Cmd_Type&lt;br style=&quot;font-size: 14px;&quot;&gt;CHeck" style="rhombus;whiteSpace=wrap;html=1;aspect=fixed;strokeWidth=2;fontStyle=1;fontSize=14;" parent="1" vertex="1">
          <mxGeometry x="619" y="-980" width="105" height="100" as="geometry" />
        </mxCell>
        <mxCell id="FlCNs_IBPol1UIJCw7tp-35" style="edgeStyle=orthogonalEdgeStyle;rounded=0;orthogonalLoop=1;jettySize=auto;html=1;exitX=0.5;exitY=1;exitDx=0;exitDy=0;entryX=0.5;entryY=0;entryDx=0;entryDy=0;fontStyle=1;strokeWidth=3;" parent="1" source="FlCNs_IBPol1UIJCw7tp-21" target="FlCNs_IBPol1UIJCw7tp-31" edge="1">
          <mxGeometry relative="1" as="geometry" />
        </mxCell>
        <mxCell id="FlCNs_IBPol1UIJCw7tp-21" value="Handle Update Pending Info" style="rounded=0;whiteSpace=wrap;html=1;fontStyle=1;strokeWidth=2;fontSize=14;" parent="1" vertex="1">
          <mxGeometry x="621" y="-560" width="103" height="76" as="geometry" />
        </mxCell>
        <mxCell id="FlCNs_IBPol1UIJCw7tp-57" style="edgeStyle=orthogonalEdgeStyle;rounded=0;orthogonalLoop=1;jettySize=auto;html=1;exitX=0.5;exitY=1;exitDx=0;exitDy=0;entryX=0.5;entryY=0;entryDx=0;entryDy=0;fontStyle=1;fontColor=#000000;fillColor=#e51400;strokeColor=#ff2600;strokeWidth=3;" parent="1" source="FlCNs_IBPol1UIJCw7tp-23" target="FlCNs_IBPol1UIJCw7tp-26" edge="1">
          <mxGeometry relative="1" as="geometry" />
        </mxCell>
        <mxCell id="FlCNs_IBPol1UIJCw7tp-23" value="Is Pair?" style="rhombus;whiteSpace=wrap;html=1;aspect=fixed;fontStyle=1;strokeWidth=2;fontSize=14;" parent="1" vertex="1">
          <mxGeometry x="618" y="-819" width="105" height="100" as="geometry" />
        </mxCell>
        <mxCell id="FlCNs_IBPol1UIJCw7tp-34" style="edgeStyle=orthogonalEdgeStyle;rounded=0;orthogonalLoop=1;jettySize=auto;html=1;exitX=0.5;exitY=1;exitDx=0;exitDy=0;entryX=0.5;entryY=0;entryDx=0;entryDy=0;fontStyle=1;strokeWidth=3;" parent="1" source="FlCNs_IBPol1UIJCw7tp-26" target="FlCNs_IBPol1UIJCw7tp-21" edge="1">
          <mxGeometry relative="1" as="geometry" />
        </mxCell>
        <mxCell id="FlCNs_IBPol1UIJCw7tp-26" value="Device Type&lt;br style=&quot;font-size: 14px;&quot;&gt;Is TIFD?" style="rhombus;whiteSpace=wrap;html=1;aspect=fixed;fontStyle=1;strokeWidth=2;fontSize=14;" parent="1" vertex="1">
          <mxGeometry x="619" y="-690" width="105" height="100" as="geometry" />
        </mxCell>
        <mxCell id="FlCNs_IBPol1UIJCw7tp-36" style="edgeStyle=orthogonalEdgeStyle;rounded=0;orthogonalLoop=1;jettySize=auto;html=1;exitX=0.5;exitY=1;exitDx=0;exitDy=0;entryX=0.5;entryY=0;entryDx=0;entryDy=0;fontStyle=1;strokeWidth=3;" parent="1" source="FlCNs_IBPol1UIJCw7tp-31" target="FlCNs_IBPol1UIJCw7tp-33" edge="1">
          <mxGeometry relative="1" as="geometry" />
        </mxCell>
        <mxCell id="FlCNs_IBPol1UIJCw7tp-31" value="속도가 &lt;br style=&quot;font-size: 14px;&quot;&gt;최저 이상?" style="rhombus;whiteSpace=wrap;html=1;aspect=fixed;fontStyle=1;strokeWidth=2;fontSize=14;" parent="1" vertex="1">
          <mxGeometry x="620" y="-454" width="105" height="100" as="geometry" />
        </mxCell>
        <mxCell id="FlCNs_IBPol1UIJCw7tp-32" value="&lt;p style=&quot;margin: 0px; padding: 0px; border: 0px none; line-height: 0px; overflow-wrap: break-word; font-family: Arial; font-size: 14px;&quot;&gt;&lt;span style=&quot;font-size: 14px;&quot;&gt;&lt;/span&gt;&lt;/p&gt;&lt;p style=&quot;margin: 0px; padding: 0px; border: 0px none; line-height: 0px; overflow-wrap: break-word; font-family: Arial; font-size: 14px;&quot;&gt;&lt;span style=&quot;font-size: 14px;&quot;&gt;&lt;/span&gt;&lt;/p&gt;&lt;p style=&quot;margin: 0px; padding: 0px; border: 0px none; line-height: 0px; overflow-wrap: break-word; font-family: Arial; font-size: 14px;&quot;&gt;&lt;span style=&quot;font-size: 14px;&quot;&gt;Disconnected&lt;/span&gt;&lt;/p&gt;&lt;p style=&quot;margin: 0px; padding: 0px; border: 0px none; line-height: 0px; overflow-wrap: break-word; font-family: Arial; font-size: 14px;&quot;&gt;&lt;span style=&quot;font-size: 14px;&quot;&gt;&lt;br style=&quot;font-size: 14px;&quot;&gt;&lt;/span&gt;&lt;/p&gt;" style="rounded=0;whiteSpace=wrap;html=1;fontStyle=1;strokeWidth=2;fontSize=14;" parent="1" vertex="1">
          <mxGeometry x="751" y="-560" width="103" height="76" as="geometry" />
        </mxCell>
        <mxCell id="FlCNs_IBPol1UIJCw7tp-38" style="edgeStyle=orthogonalEdgeStyle;rounded=0;orthogonalLoop=1;jettySize=auto;html=1;exitX=0.5;exitY=1;exitDx=0;exitDy=0;entryX=0.5;entryY=0;entryDx=0;entryDy=0;fontStyle=1;strokeWidth=3;" parent="1" source="FlCNs_IBPol1UIJCw7tp-33" target="FlCNs_IBPol1UIJCw7tp-37" edge="1">
          <mxGeometry relative="1" as="geometry" />
        </mxCell>
        <mxCell id="FlCNs_IBPol1UIJCw7tp-33" value="Checking Possible Tird" style="rounded=0;whiteSpace=wrap;html=1;fontStyle=1;strokeWidth=2;" parent="1" vertex="1">
          <mxGeometry x="621" y="-328" width="103" height="76" as="geometry" />
        </mxCell>
        <mxCell id="FlCNs_IBPol1UIJCw7tp-48" style="edgeStyle=orthogonalEdgeStyle;rounded=0;orthogonalLoop=1;jettySize=auto;html=1;exitX=0.5;exitY=1;exitDx=0;exitDy=0;fontStyle=1;strokeWidth=3;" parent="1" source="FlCNs_IBPol1UIJCw7tp-37" target="FlCNs_IBPol1UIJCw7tp-40" edge="1">
          <mxGeometry relative="1" as="geometry" />
        </mxCell>
        <mxCell id="FlCNs_IBPol1UIJCw7tp-37" value="Possible List&lt;br&gt;순회(for)" style="rhombus;whiteSpace=wrap;html=1;aspect=fixed;fontStyle=1;strokeWidth=2;" parent="1" vertex="1">
          <mxGeometry x="623" y="-230" width="105" height="100" as="geometry" />
        </mxCell>
        <mxCell id="FlCNs_IBPol1UIJCw7tp-39" value="Find Near Possible TIRD" style="rounded=0;whiteSpace=wrap;html=1;fontStyle=1;strokeWidth=2;" parent="1" vertex="1">
          <mxGeometry x="320" y="-243" width="103" height="76" as="geometry" />
        </mxCell>
        <mxCell id="FlCNs_IBPol1UIJCw7tp-49" style="edgeStyle=orthogonalEdgeStyle;rounded=0;orthogonalLoop=1;jettySize=auto;html=1;exitX=0.5;exitY=1;exitDx=0;exitDy=0;entryX=0.5;entryY=0;entryDx=0;entryDy=0;fontStyle=1;strokeWidth=3;" parent="1" source="FlCNs_IBPol1UIJCw7tp-40" target="FlCNs_IBPol1UIJCw7tp-41" edge="1">
          <mxGeometry relative="1" as="geometry" />
        </mxCell>
        <mxCell id="FlCNs_IBPol1UIJCw7tp-40" value="is Start?" style="rhombus;whiteSpace=wrap;html=1;aspect=fixed;fontStyle=1;strokeWidth=2;" parent="1" vertex="1">
          <mxGeometry x="623" y="-100" width="105" height="100" as="geometry" />
        </mxCell>
        <mxCell id="FlCNs_IBPol1UIJCw7tp-50" style="edgeStyle=orthogonalEdgeStyle;rounded=0;orthogonalLoop=1;jettySize=auto;html=1;exitX=1;exitY=0.5;exitDx=0;exitDy=0;entryX=0;entryY=0.5;entryDx=0;entryDy=0;fontStyle=1;strokeWidth=3;" parent="1" source="FlCNs_IBPol1UIJCw7tp-41" target="FlCNs_IBPol1UIJCw7tp-42" edge="1">
          <mxGeometry relative="1" as="geometry" />
        </mxCell>
        <mxCell id="FlCNs_IBPol1UIJCw7tp-41" value="길이 - 첫길이&lt;br&gt;&amp;lt; 정확도설정" style="rhombus;whiteSpace=wrap;html=1;aspect=fixed;fontStyle=1;strokeWidth=2;" parent="1" vertex="1">
          <mxGeometry x="623" y="30" width="105" height="100" as="geometry" />
        </mxCell>
        <mxCell id="FlCNs_IBPol1UIJCw7tp-51" style="edgeStyle=orthogonalEdgeStyle;rounded=0;orthogonalLoop=1;jettySize=auto;html=1;exitX=0.5;exitY=0;exitDx=0;exitDy=0;entryX=0.5;entryY=1;entryDx=0;entryDy=0;fontStyle=1;strokeWidth=3;" parent="1" target="FlCNs_IBPol1UIJCw7tp-44" edge="1">
          <mxGeometry relative="1" as="geometry">
            <mxPoint x="848.5" y="42" as="sourcePoint" />
          </mxGeometry>
        </mxCell>
        <mxCell id="FlCNs_IBPol1UIJCw7tp-42" value="Count +1" style="rounded=0;whiteSpace=wrap;fontStyle=1;strokeWidth=2;" parent="1" vertex="1">
          <mxGeometry x="798" y="42" width="103" height="76" as="geometry" />
        </mxCell>
        <mxCell id="FlCNs_IBPol1UIJCw7tp-52" style="edgeStyle=orthogonalEdgeStyle;rounded=0;orthogonalLoop=1;jettySize=auto;html=1;exitX=0.5;exitY=0;exitDx=0;exitDy=0;fontStyle=1;strokeWidth=3;" parent="1" source="FlCNs_IBPol1UIJCw7tp-44" target="FlCNs_IBPol1UIJCw7tp-73" edge="1">
          <mxGeometry relative="1" as="geometry">
            <mxPoint x="849" y="-120" as="targetPoint" />
            <Array as="points">
              <mxPoint x="848" y="-116" />
              <mxPoint x="1007" y="-116" />
            </Array>
          </mxGeometry>
        </mxCell>
        <mxCell id="FlCNs_IBPol1UIJCw7tp-44" value="Count&lt;br&gt;&amp;gt;= Success" style="rhombus;whiteSpace=wrap;html=1;aspect=fixed;fontStyle=1;strokeWidth=2;" parent="1" vertex="1">
          <mxGeometry x="796" y="-100" width="105" height="100" as="geometry" />
        </mxCell>
        <mxCell id="FlCNs_IBPol1UIJCw7tp-53" style="edgeStyle=orthogonalEdgeStyle;rounded=0;orthogonalLoop=1;jettySize=auto;html=1;exitX=0.5;exitY=0;exitDx=0;exitDy=0;entryX=0.5;entryY=1;entryDx=0;entryDy=0;fontStyle=1;strokeWidth=3;" parent="1" source="FlCNs_IBPol1UIJCw7tp-73" target="FlCNs_IBPol1UIJCw7tp-46" edge="1">
          <mxGeometry relative="1" as="geometry">
            <mxPoint x="848.5" y="-218" as="sourcePoint" />
          </mxGeometry>
        </mxCell>
        <mxCell id="FlCNs_IBPol1UIJCw7tp-46" value="Send Pairing Packet to TIFD" style="rounded=0;whiteSpace=wrap;fontStyle=1;html=1;strokeWidth=2;" parent="1" vertex="1">
          <mxGeometry x="956" y="-370" width="103" height="76" as="geometry" />
        </mxCell>
        <mxCell id="FlCNs_IBPol1UIJCw7tp-47" value="Send LORA_CH&lt;br&gt;Packet to TIFD, TIRD" style="rounded=0;whiteSpace=wrap;fontStyle=1;html=1;strokeWidth=2;" parent="1" vertex="1">
          <mxGeometry x="956" y="-490" width="102.9" height="76" as="geometry" />
        </mxCell>
        <mxCell id="FlCNs_IBPol1UIJCw7tp-69" style="edgeStyle=orthogonalEdgeStyle;rounded=0;orthogonalLoop=1;jettySize=auto;html=1;fontStyle=1;strokeWidth=3;exitX=0.514;exitY=-0.012;exitDx=0;exitDy=0;entryX=1;entryY=0.5;entryDx=0;entryDy=0;exitPerimeter=0;" parent="1" source="FlCNs_IBPol1UIJCw7tp-47" target="FlCNs_IBPol1UIJCw7tp-10" edge="1">
          <mxGeometry relative="1" as="geometry">
            <mxPoint x="1470" y="-600" as="sourcePoint" />
            <mxPoint x="1240" y="-1090" as="targetPoint" />
            <Array as="points">
              <mxPoint x="1009" y="-1074" />
            </Array>
          </mxGeometry>
        </mxCell>
        <mxCell id="FlCNs_IBPol1UIJCw7tp-73" value="(TIM)&lt;br style=&quot;border-color: var(--border-color);&quot;&gt;&lt;span style=&quot;border-color: var(--border-color);&quot;&gt;Push Pairing&lt;br&gt;List&lt;/span&gt;" style="rhombus;whiteSpace=wrap;html=1;aspect=fixed;fontStyle=1;strokeWidth=2;" parent="1" vertex="1">
          <mxGeometry x="956" y="-234" width="102.9" height="98" as="geometry" />
        </mxCell>
        <mxCell id="FlCNs_IBPol1UIJCw7tp-76" value="첫 길이 저장&lt;br&gt;및 isStart = true" style="rounded=0;whiteSpace=wrap;fontStyle=1;html=1;strokeWidth=2;" parent="1" vertex="1">
          <mxGeometry x="460" y="-88" width="103" height="76" as="geometry" />
        </mxCell>
        <mxCell id="FlCNs_IBPol1UIJCw7tp-81" value="Possible List에서&lt;br&gt;삭제" style="rounded=0;whiteSpace=wrap;fontStyle=1;html=1;strokeWidth=2;" parent="1" vertex="1">
          <mxGeometry x="816.0000000000002" y="-223" width="103" height="76" as="geometry" />
        </mxCell>
        <mxCell id="FlCNs_IBPol1UIJCw7tp-85" style="edgeStyle=orthogonalEdgeStyle;rounded=0;orthogonalLoop=1;jettySize=auto;html=1;exitX=0.5;exitY=0;exitDx=0;exitDy=0;entryX=0.5;entryY=1;entryDx=0;entryDy=0;fontStyle=1;strokeWidth=3;" parent="1" source="FlCNs_IBPol1UIJCw7tp-46" target="FlCNs_IBPol1UIJCw7tp-47" edge="1">
          <mxGeometry relative="1" as="geometry">
            <mxPoint x="866" y="-400" as="sourcePoint" />
            <mxPoint x="816" y="-400" as="targetPoint" />
          </mxGeometry>
        </mxCell>
        <mxCell id="FlCNs_IBPol1UIJCw7tp-86" style="edgeStyle=orthogonalEdgeStyle;rounded=0;orthogonalLoop=1;jettySize=auto;html=1;exitX=0;exitY=0.5;exitDx=0;exitDy=0;entryX=1;entryY=0.5;entryDx=0;entryDy=0;fontStyle=1;strokeWidth=3;strokeColor=#FC2821;" parent="1" source="FlCNs_IBPol1UIJCw7tp-73" target="FlCNs_IBPol1UIJCw7tp-81" edge="1">
          <mxGeometry relative="1" as="geometry">
            <mxPoint x="1026.0000000000002" y="-200" as="sourcePoint" />
            <mxPoint x="826.0000000000002" y="-200" as="targetPoint" />
          </mxGeometry>
        </mxCell>
        <mxCell id="FlCNs_IBPol1UIJCw7tp-88" value="" style="ellipse;whiteSpace=wrap;html=1;strokeWidth=2;" parent="1" vertex="1">
          <mxGeometry x="756" y="-195" width="30" height="30" as="geometry" />
        </mxCell>
        <mxCell id="FlCNs_IBPol1UIJCw7tp-90" style="orthogonalLoop=1;jettySize=auto;html=1;exitX=0;exitY=0.5;exitDx=0;exitDy=0;entryX=0.5;entryY=1;entryDx=0;entryDy=0;fontStyle=1;strokeWidth=3;rounded=0;edgeStyle=orthogonalEdgeStyle;endArrow=none;endFill=0;strokeColor=#ff0000;" parent="1" source="FlCNs_IBPol1UIJCw7tp-44" target="FlCNs_IBPol1UIJCw7tp-88" edge="1">
          <mxGeometry relative="1" as="geometry">
            <mxPoint x="646" y="-210" as="sourcePoint" />
            <mxPoint x="596" y="-210" as="targetPoint" />
          </mxGeometry>
        </mxCell>
        <mxCell id="FlCNs_IBPol1UIJCw7tp-91" style="edgeStyle=orthogonalEdgeStyle;rounded=0;orthogonalLoop=1;jettySize=auto;html=1;exitX=0;exitY=0.5;exitDx=0;exitDy=0;fontStyle=1;strokeWidth=3;endArrow=none;endFill=0;" parent="1" edge="1">
          <mxGeometry relative="1" as="geometry">
            <mxPoint x="816.0000000000005" y="-180.07999999999998" as="sourcePoint" />
            <mxPoint x="786" y="-180.07999999999998" as="targetPoint" />
            <Array as="points">
              <mxPoint x="786" y="-180.07999999999998" />
            </Array>
          </mxGeometry>
        </mxCell>
        <mxCell id="FlCNs_IBPol1UIJCw7tp-92" style="edgeStyle=orthogonalEdgeStyle;rounded=0;orthogonalLoop=1;jettySize=auto;html=1;exitX=0;exitY=0.5;exitDx=0;exitDy=0;fontStyle=1;strokeWidth=3;entryX=1;entryY=0.5;entryDx=0;entryDy=0;" parent="1" source="FlCNs_IBPol1UIJCw7tp-88" target="FlCNs_IBPol1UIJCw7tp-37" edge="1">
          <mxGeometry relative="1" as="geometry">
            <mxPoint x="726" y="-230" as="sourcePoint" />
            <mxPoint x="736" y="-180" as="targetPoint" />
          </mxGeometry>
        </mxCell>
        <mxCell id="FlCNs_IBPol1UIJCw7tp-93" style="edgeStyle=orthogonalEdgeStyle;rounded=0;orthogonalLoop=1;jettySize=auto;html=1;exitX=0;exitY=0.5;exitDx=0;exitDy=0;entryX=1;entryY=0.5;entryDx=0;entryDy=0;fontStyle=1;strokeWidth=3;fillColor=#e51400;strokeColor=#FC2821;" parent="1" source="FlCNs_IBPol1UIJCw7tp-40" target="FlCNs_IBPol1UIJCw7tp-76" edge="1">
          <mxGeometry relative="1" as="geometry">
            <mxPoint x="626" y="-70" as="sourcePoint" />
            <mxPoint x="576" y="-70" as="targetPoint" />
          </mxGeometry>
        </mxCell>
        <mxCell id="FlCNs_IBPol1UIJCw7tp-94" style="edgeStyle=orthogonalEdgeStyle;rounded=0;orthogonalLoop=1;jettySize=auto;html=1;exitX=0;exitY=0.5;exitDx=0;exitDy=0;entryX=1;entryY=0.5;entryDx=0;entryDy=0;fontStyle=1;strokeWidth=3;strokeColor=#FC2821;" parent="1" source="FlCNs_IBPol1UIJCw7tp-41" edge="1">
          <mxGeometry relative="1" as="geometry">
            <mxPoint x="633" y="-40" as="sourcePoint" />
            <mxPoint x="563.0000000000005" y="80" as="targetPoint" />
          </mxGeometry>
        </mxCell>
        <mxCell id="FlCNs_IBPol1UIJCw7tp-95" value="Possible List에서&lt;br&gt;삭제" style="rounded=0;whiteSpace=wrap;fontStyle=1;html=1;strokeWidth=2;" parent="1" vertex="1">
          <mxGeometry x="460.0000000000002" y="42" width="103" height="76" as="geometry" />
        </mxCell>
        <mxCell id="FlCNs_IBPol1UIJCw7tp-96" value="" style="ellipse;whiteSpace=wrap;html=1;strokeWidth=2;" parent="1" vertex="1">
          <mxGeometry x="466" y="-220" width="30" height="30" as="geometry" />
        </mxCell>
        <mxCell id="FlCNs_IBPol1UIJCw7tp-97" style="orthogonalLoop=1;jettySize=auto;html=1;entryX=1;entryY=0.5;entryDx=0;entryDy=0;fontStyle=1;strokeWidth=3;rounded=0;edgeStyle=orthogonalEdgeStyle;endArrow=none;endFill=0;strokeColor=#ff0000;exitX=0;exitY=0;exitDx=0;exitDy=0;" parent="1" source="FlCNs_IBPol1UIJCw7tp-37" target="FlCNs_IBPol1UIJCw7tp-96" edge="1">
          <mxGeometry relative="1" as="geometry">
            <mxPoint x="561" y="-155" as="sourcePoint" />
            <mxPoint x="536" y="-270" as="targetPoint" />
          </mxGeometry>
        </mxCell>
        <mxCell id="FlCNs_IBPol1UIJCw7tp-98" style="orthogonalLoop=1;jettySize=auto;html=1;exitX=0.5;exitY=0;exitDx=0;exitDy=0;entryX=0;entryY=0.5;entryDx=0;entryDy=0;fontStyle=1;strokeWidth=3;rounded=0;edgeStyle=orthogonalEdgeStyle;endArrow=none;endFill=0;strokeColor=#ff0000;" parent="1" source="FlCNs_IBPol1UIJCw7tp-96" target="FlCNs_IBPol1UIJCw7tp-31" edge="1">
          <mxGeometry relative="1" as="geometry">
            <mxPoint x="511" y="-245" as="sourcePoint" />
            <mxPoint x="486" y="-360" as="targetPoint" />
            <Array as="points">
              <mxPoint x="481" y="-310" />
              <mxPoint x="586" y="-310" />
              <mxPoint x="586" y="-404" />
            </Array>
          </mxGeometry>
        </mxCell>
        <mxCell id="FlCNs_IBPol1UIJCw7tp-99" style="edgeStyle=orthogonalEdgeStyle;rounded=0;orthogonalLoop=1;jettySize=auto;html=1;exitX=0;exitY=0.5;exitDx=0;exitDy=0;fontStyle=1;strokeWidth=3;entryX=1;entryY=0.5;entryDx=0;entryDy=0;" parent="1" source="FlCNs_IBPol1UIJCw7tp-96" target="FlCNs_IBPol1UIJCw7tp-39" edge="1">
          <mxGeometry relative="1" as="geometry">
            <mxPoint x="476" y="-200" as="sourcePoint" />
            <mxPoint x="426" y="-200" as="targetPoint" />
          </mxGeometry>
        </mxCell>
        <mxCell id="FlCNs_IBPol1UIJCw7tp-100" value="" style="ellipse;whiteSpace=wrap;html=1;strokeWidth=2;" parent="1" vertex="1">
          <mxGeometry x="536" y="-195" width="30" height="30" as="geometry" />
        </mxCell>
        <mxCell id="FlCNs_IBPol1UIJCw7tp-101" style="edgeStyle=orthogonalEdgeStyle;rounded=0;orthogonalLoop=1;jettySize=auto;html=1;exitX=1;exitY=0.5;exitDx=0;exitDy=0;entryX=0;entryY=0.5;entryDx=0;entryDy=0;fontStyle=1;strokeWidth=3;" parent="1" source="FlCNs_IBPol1UIJCw7tp-100" target="FlCNs_IBPol1UIJCw7tp-37" edge="1">
          <mxGeometry relative="1" as="geometry">
            <mxPoint x="526" y="-120" as="sourcePoint" />
            <mxPoint x="476" y="-120" as="targetPoint" />
          </mxGeometry>
        </mxCell>
        <mxCell id="FlCNs_IBPol1UIJCw7tp-103" style="edgeStyle=orthogonalEdgeStyle;rounded=0;orthogonalLoop=1;jettySize=auto;html=1;exitX=0.5;exitY=0;exitDx=0;exitDy=0;fontStyle=1;strokeWidth=3;endArrow=none;endFill=0;entryX=0.5;entryY=1;entryDx=0;entryDy=0;" parent="1" source="FlCNs_IBPol1UIJCw7tp-76" target="FlCNs_IBPol1UIJCw7tp-100" edge="1">
          <mxGeometry relative="1" as="geometry">
            <mxPoint x="496.00000000000045" y="-140.00000000000006" as="sourcePoint" />
            <mxPoint x="466" y="-140.00000000000006" as="targetPoint" />
            <Array as="points">
              <mxPoint x="512" y="-130" />
              <mxPoint x="551" y="-130" />
            </Array>
          </mxGeometry>
        </mxCell>
        <mxCell id="FlCNs_IBPol1UIJCw7tp-104" style="edgeStyle=orthogonalEdgeStyle;rounded=0;orthogonalLoop=1;jettySize=auto;html=1;exitX=0;exitY=0.5;exitDx=0;exitDy=0;fontStyle=1;strokeWidth=3;endArrow=none;endFill=0;entryX=0;entryY=0.5;entryDx=0;entryDy=0;" parent="1" source="FlCNs_IBPol1UIJCw7tp-95" target="FlCNs_IBPol1UIJCw7tp-100" edge="1">
          <mxGeometry relative="1" as="geometry">
            <mxPoint x="426.00000000000045" y="29.999999999999943" as="sourcePoint" />
            <mxPoint x="396" y="29.999999999999943" as="targetPoint" />
            <Array as="points">
              <mxPoint x="436" y="80" />
              <mxPoint x="436" y="-180" />
            </Array>
          </mxGeometry>
        </mxCell>
        <mxCell id="VzTFzCelFTvTFUtPNzLl-1" style="edgeStyle=orthogonalEdgeStyle;rounded=0;orthogonalLoop=1;jettySize=auto;html=1;exitX=0;exitY=0.5;exitDx=0;exitDy=0;entryX=1;entryY=0.5;entryDx=0;entryDy=0;fontStyle=1;strokeWidth=3;" parent="1" edge="1">
          <mxGeometry relative="1" as="geometry">
            <mxPoint x="990" y="-1140" as="sourcePoint" />
            <mxPoint x="940" y="-1140" as="targetPoint" />
          </mxGeometry>
        </mxCell>
        <mxCell id="VzTFzCelFTvTFUtPNzLl-2" style="edgeStyle=orthogonalEdgeStyle;rounded=0;orthogonalLoop=1;jettySize=auto;html=1;entryX=1;entryY=0.5;entryDx=0;entryDy=0;fontStyle=1;strokeWidth=3;strokeColor=#FC2821;" parent="1" edge="1">
          <mxGeometry relative="1" as="geometry">
            <mxPoint x="990" y="-1110" as="sourcePoint" />
            <mxPoint x="940.0000000000002" y="-1110" as="targetPoint" />
          </mxGeometry>
        </mxCell>
        <mxCell id="VzTFzCelFTvTFUtPNzLl-4" value="참" style="text;html=1;strokeColor=none;fillColor=none;align=center;verticalAlign=middle;whiteSpace=wrap;rounded=0;fontSize=20;fontStyle=1" parent="1" vertex="1">
          <mxGeometry x="990" y="-1154" width="60" height="30" as="geometry" />
        </mxCell>
        <mxCell id="VzTFzCelFTvTFUtPNzLl-5" value="거짓" style="text;html=1;strokeColor=none;fillColor=none;align=center;verticalAlign=middle;whiteSpace=wrap;rounded=0;fontSize=20;fontStyle=1" parent="1" vertex="1">
          <mxGeometry x="990" y="-1124" width="60" height="30" as="geometry" />
        </mxCell>
        <mxCell id="mwJyTNDDtB5qL9PiFzt8-1" style="edgeStyle=orthogonalEdgeStyle;rounded=0;orthogonalLoop=1;jettySize=auto;html=1;exitX=1;exitY=0.5;exitDx=0;exitDy=0;entryX=0.5;entryY=0;entryDx=0;entryDy=0;fontStyle=1;strokeWidth=3;strokeColor=#FC2821;" edge="1" parent="1" source="FlCNs_IBPol1UIJCw7tp-26" target="FlCNs_IBPol1UIJCw7tp-32">
          <mxGeometry relative="1" as="geometry">
            <mxPoint x="990.0000000000002" y="-660" as="sourcePoint" />
            <mxPoint x="790.0000000000002" y="-660" as="targetPoint" />
          </mxGeometry>
        </mxCell>
        <mxCell id="mwJyTNDDtB5qL9PiFzt8-2" style="edgeStyle=orthogonalEdgeStyle;rounded=0;orthogonalLoop=1;jettySize=auto;html=1;exitX=0;exitY=0.5;exitDx=0;exitDy=0;entryX=1;entryY=0.5;entryDx=0;entryDy=0;fontStyle=1;strokeWidth=3;" edge="1" parent="1" source="FlCNs_IBPol1UIJCw7tp-23" target="mwJyTNDDtB5qL9PiFzt8-3">
          <mxGeometry relative="1" as="geometry">
            <mxPoint x="500" y="-760" as="sourcePoint" />
            <mxPoint x="450" y="-760" as="targetPoint" />
            <Array as="points" />
          </mxGeometry>
        </mxCell>
        <mxCell id="mwJyTNDDtB5qL9PiFzt8-3" value="Handle&lt;br style=&quot;font-size: 14px;&quot;&gt;Pairing Info" style="rounded=0;whiteSpace=wrap;fontStyle=1;html=1;strokeWidth=2;fontSize=14;" vertex="1" parent="1">
          <mxGeometry x="429.5000000000002" y="-807" width="103" height="76" as="geometry" />
        </mxCell>
        <mxCell id="mwJyTNDDtB5qL9PiFzt8-4" value="Else" style="edgeStyle=orthogonalEdgeStyle;rounded=0;orthogonalLoop=1;jettySize=auto;html=1;exitX=1;exitY=0.5;exitDx=0;exitDy=0;entryX=0.5;entryY=0;entryDx=0;entryDy=0;fontStyle=1;strokeWidth=3;strokeColor=#FC2821;fontSize=12;" edge="1" parent="1" source="FlCNs_IBPol1UIJCw7tp-13" target="FlCNs_IBPol1UIJCw7tp-32">
          <mxGeometry x="-0.3377" relative="1" as="geometry">
            <mxPoint x="970.0000000000002" y="-890" as="sourcePoint" />
            <mxPoint x="770.0000000000002" y="-890" as="targetPoint" />
            <mxPoint as="offset" />
          </mxGeometry>
        </mxCell>
        <mxCell id="mwJyTNDDtB5qL9PiFzt8-7" value="TrainStatus == OpenAlram&lt;br style=&quot;font-size: 15px;&quot;&gt;_Request" style="rhombus;whiteSpace=wrap;html=1;aspect=fixed;fontStyle=1;strokeWidth=2;fontSize=15;" vertex="1" parent="1">
          <mxGeometry x="210" y="-847.57" width="165" height="157.14" as="geometry" />
        </mxCell>
        <mxCell id="mwJyTNDDtB5qL9PiFzt8-8" style="edgeStyle=orthogonalEdgeStyle;rounded=0;orthogonalLoop=1;jettySize=auto;html=1;exitX=0;exitY=0.5;exitDx=0;exitDy=0;entryX=1;entryY=0.5;entryDx=0;entryDy=0;fontStyle=1;strokeWidth=3;" edge="1" parent="1" source="mwJyTNDDtB5qL9PiFzt8-3" target="mwJyTNDDtB5qL9PiFzt8-7">
          <mxGeometry relative="1" as="geometry">
            <mxPoint x="200" y="-720" as="sourcePoint" />
            <mxPoint x="150" y="-720" as="targetPoint" />
          </mxGeometry>
        </mxCell>
        <mxCell id="mwJyTNDDtB5qL9PiFzt8-9" style="edgeStyle=orthogonalEdgeStyle;rounded=0;orthogonalLoop=1;jettySize=auto;html=1;exitX=0;exitY=0.5;exitDx=0;exitDy=0;entryX=1;entryY=0.5;entryDx=0;entryDy=0;fontStyle=1;strokeWidth=3;" edge="1" parent="1" source="mwJyTNDDtB5qL9PiFzt8-7" target="mwJyTNDDtB5qL9PiFzt8-10">
          <mxGeometry relative="1" as="geometry">
            <mxPoint x="190" y="-770" as="sourcePoint" />
            <mxPoint x="140" y="-770" as="targetPoint" />
          </mxGeometry>
        </mxCell>
        <mxCell id="mwJyTNDDtB5qL9PiFzt8-10" value="새로운 리스트 &lt;br style=&quot;font-size: 14px;&quot;&gt;찾기" style="rounded=0;whiteSpace=wrap;fontStyle=1;html=1;strokeWidth=2;fontSize=14;" vertex="1" parent="1">
          <mxGeometry x="30.000000000000227" y="-807" width="103" height="76" as="geometry" />
        </mxCell>
        <mxCell id="mwJyTNDDtB5qL9PiFzt8-11" style="edgeStyle=orthogonalEdgeStyle;rounded=0;orthogonalLoop=1;jettySize=auto;html=1;exitX=0.5;exitY=1;exitDx=0;exitDy=0;entryX=0.5;entryY=0;entryDx=0;entryDy=0;fontStyle=1;strokeWidth=3;strokeColor=#FC2821;" edge="1" parent="1" source="mwJyTNDDtB5qL9PiFzt8-7" target="mwJyTNDDtB5qL9PiFzt8-12">
          <mxGeometry relative="1" as="geometry">
            <mxPoint x="450.0000000000002" y="-950" as="sourcePoint" />
            <mxPoint x="250.00000000000023" y="-950" as="targetPoint" />
          </mxGeometry>
        </mxCell>
        <mxCell id="mwJyTNDDtB5qL9PiFzt8-12" value="(TIM)&lt;br style=&quot;font-size: 14px;&quot;&gt;Update Pair &lt;br style=&quot;font-size: 14px;&quot;&gt;With Tifd" style="rounded=0;whiteSpace=wrap;fontStyle=1;html=1;strokeWidth=2;fontSize=14;" vertex="1" parent="1">
          <mxGeometry x="241.00000000000023" y="-610" width="103" height="76" as="geometry" />
        </mxCell>
        <mxCell id="mwJyTNDDtB5qL9PiFzt8-14" value="" style="ellipse;whiteSpace=wrap;html=1;strokeWidth=2;" vertex="1" parent="1">
          <mxGeometry x="-90" y="-784" width="30" height="30" as="geometry" />
        </mxCell>
        <mxCell id="mwJyTNDDtB5qL9PiFzt8-15" style="edgeStyle=orthogonalEdgeStyle;rounded=0;orthogonalLoop=1;jettySize=auto;html=1;exitX=0;exitY=0.5;exitDx=0;exitDy=0;fontStyle=1;strokeWidth=3;endArrow=none;endFill=0;entryX=1;entryY=0.5;entryDx=0;entryDy=0;" edge="1" parent="1" source="mwJyTNDDtB5qL9PiFzt8-10" target="mwJyTNDDtB5qL9PiFzt8-14">
          <mxGeometry relative="1" as="geometry">
            <mxPoint x="-329.99999999999955" y="-940" as="sourcePoint" />
            <mxPoint x="-360" y="-940" as="targetPoint" />
            <Array as="points">
              <mxPoint x="10" y="-769" />
              <mxPoint x="10" y="-769" />
            </Array>
          </mxGeometry>
        </mxCell>
        <mxCell id="mwJyTNDDtB5qL9PiFzt8-16" style="edgeStyle=orthogonalEdgeStyle;rounded=0;orthogonalLoop=1;jettySize=auto;html=1;exitX=0;exitY=0.5;exitDx=0;exitDy=0;fontStyle=1;strokeWidth=3;endArrow=none;endFill=0;entryX=0.5;entryY=1;entryDx=0;entryDy=0;" edge="1" parent="1" source="mwJyTNDDtB5qL9PiFzt8-12" target="mwJyTNDDtB5qL9PiFzt8-14">
          <mxGeometry relative="1" as="geometry">
            <mxPoint x="4.547473508864641e-13" y="-580" as="sourcePoint" />
            <mxPoint x="-30" y="-580" as="targetPoint" />
            <Array as="points">
              <mxPoint x="-75" y="-572" />
            </Array>
          </mxGeometry>
        </mxCell>
        <mxCell id="mwJyTNDDtB5qL9PiFzt8-17" style="edgeStyle=orthogonalEdgeStyle;rounded=0;orthogonalLoop=1;jettySize=auto;html=1;exitX=0;exitY=0.5;exitDx=0;exitDy=0;fontStyle=1;strokeWidth=3;endArrow=none;endFill=0;entryX=0.5;entryY=1;entryDx=0;entryDy=0;" edge="1" parent="1" source="FlCNs_IBPol1UIJCw7tp-39" target="mwJyTNDDtB5qL9PiFzt8-14">
          <mxGeometry relative="1" as="geometry">
            <mxPoint x="-19.999999999999545" y="-230.00000000000006" as="sourcePoint" />
            <mxPoint x="-50" y="-230.00000000000006" as="targetPoint" />
            <Array as="points">
              <mxPoint x="-75" y="-205" />
            </Array>
          </mxGeometry>
        </mxCell>
        <mxCell id="mwJyTNDDtB5qL9PiFzt8-18" style="edgeStyle=orthogonalEdgeStyle;rounded=0;orthogonalLoop=1;jettySize=auto;html=1;exitX=0.5;exitY=0;exitDx=0;exitDy=0;fontStyle=1;strokeWidth=3;" edge="1" parent="1" source="mwJyTNDDtB5qL9PiFzt8-14">
          <mxGeometry relative="1" as="geometry">
            <mxPoint x="-80" y="-830" as="sourcePoint" />
            <mxPoint x="620" y="-1070" as="targetPoint" />
            <Array as="points">
              <mxPoint x="-75" y="-1070" />
              <mxPoint x="620" y="-1070" />
            </Array>
          </mxGeometry>
        </mxCell>
      </root>
    </mxGraphModel>
  </diagram>
</mxfile>
